<mxfile host="Electron" modified="2023-07-19T17:10:34.412Z" agent="Mozilla/5.0 (Windows NT 10.0; Win64; x64) AppleWebKit/537.36 (KHTML, like Gecko) draw.io/21.5.1 Chrome/112.0.5615.204 Electron/24.6.0 Safari/537.36" etag="-khZZRyNTpvG79UKEFhV" version="21.5.1" type="device">
  <diagram name="Page-1" id="4NdTCrB0yl297gs89w7f">
    <mxGraphModel dx="1098" dy="672" grid="1" gridSize="10" guides="1" tooltips="1" connect="1" arrows="1" fold="1" page="1" pageScale="1" pageWidth="850" pageHeight="1100" math="0" shadow="0">
      <root>
        <mxCell id="0" />
        <mxCell id="1" parent="0" />
        <mxCell id="3Grn0vyBmcCtf6ID52XQ-8" style="edgeStyle=orthogonalEdgeStyle;rounded=0;orthogonalLoop=1;jettySize=auto;html=1;entryX=1;entryY=0.5;entryDx=0;entryDy=0;" edge="1" parent="1" source="5UlGaXj-KDVdqG9eecwK-1" target="3Grn0vyBmcCtf6ID52XQ-3">
          <mxGeometry relative="1" as="geometry" />
        </mxCell>
        <mxCell id="3Grn0vyBmcCtf6ID52XQ-9" style="edgeStyle=orthogonalEdgeStyle;rounded=0;orthogonalLoop=1;jettySize=auto;html=1;entryX=1;entryY=0.5;entryDx=0;entryDy=0;" edge="1" parent="1" source="5UlGaXj-KDVdqG9eecwK-1" target="3Grn0vyBmcCtf6ID52XQ-6">
          <mxGeometry relative="1" as="geometry" />
        </mxCell>
        <mxCell id="3Grn0vyBmcCtf6ID52XQ-10" style="edgeStyle=orthogonalEdgeStyle;rounded=0;orthogonalLoop=1;jettySize=auto;html=1;entryX=1;entryY=0.5;entryDx=0;entryDy=0;" edge="1" parent="1" source="5UlGaXj-KDVdqG9eecwK-1" target="3Grn0vyBmcCtf6ID52XQ-5">
          <mxGeometry relative="1" as="geometry" />
        </mxCell>
        <mxCell id="3Grn0vyBmcCtf6ID52XQ-11" style="edgeStyle=orthogonalEdgeStyle;rounded=0;orthogonalLoop=1;jettySize=auto;html=1;entryX=1;entryY=0.5;entryDx=0;entryDy=0;" edge="1" parent="1" source="5UlGaXj-KDVdqG9eecwK-1" target="3Grn0vyBmcCtf6ID52XQ-4">
          <mxGeometry relative="1" as="geometry" />
        </mxCell>
        <mxCell id="5UlGaXj-KDVdqG9eecwK-1" value="&lt;font style=&quot;font-size: 16px;&quot;&gt;&lt;b&gt;Kinesis Data Streams&lt;/b&gt;&lt;/font&gt;" style="sketch=0;points=[[0,0,0],[0.25,0,0],[0.5,0,0],[0.75,0,0],[1,0,0],[0,1,0],[0.25,1,0],[0.5,1,0],[0.75,1,0],[1,1,0],[0,0.25,0],[0,0.5,0],[0,0.75,0],[1,0.25,0],[1,0.5,0],[1,0.75,0]];outlineConnect=0;fontColor=#232F3E;gradientColor=#945DF2;gradientDirection=north;fillColor=#5A30B5;strokeColor=#ffffff;dashed=0;verticalLabelPosition=bottom;verticalAlign=top;align=center;html=1;fontSize=12;fontStyle=0;aspect=fixed;shape=mxgraph.aws4.resourceIcon;resIcon=mxgraph.aws4.kinesis_data_streams;" parent="1" vertex="1">
          <mxGeometry x="570" y="340" width="100" height="100" as="geometry" />
        </mxCell>
        <mxCell id="3Grn0vyBmcCtf6ID52XQ-1" value="&lt;font style=&quot;font-size: 16px;&quot;&gt;&lt;b&gt;EC2 Instance&lt;/b&gt;&lt;/font&gt;" style="outlineConnect=0;dashed=0;verticalLabelPosition=bottom;verticalAlign=top;align=center;html=1;shape=mxgraph.aws3.ec2;fillColor=#F58534;gradientColor=none;" vertex="1" parent="1">
          <mxGeometry x="210" y="310" width="170" height="140" as="geometry" />
        </mxCell>
        <mxCell id="3Grn0vyBmcCtf6ID52XQ-7" style="edgeStyle=orthogonalEdgeStyle;rounded=0;orthogonalLoop=1;jettySize=auto;html=1;entryX=0.5;entryY=0;entryDx=0;entryDy=0;entryPerimeter=0;" edge="1" parent="1" source="3Grn0vyBmcCtf6ID52XQ-2" target="5UlGaXj-KDVdqG9eecwK-1">
          <mxGeometry relative="1" as="geometry" />
        </mxCell>
        <mxCell id="3Grn0vyBmcCtf6ID52XQ-2" value="" style="shape=image;verticalLabelPosition=bottom;labelBackgroundColor=default;verticalAlign=top;aspect=fixed;imageAspect=0;image=https://upload.wikimedia.org/wikipedia/commons/thumb/3/38/Jupyter_logo.svg/1200px-Jupyter_logo.svg.png;" vertex="1" parent="1">
          <mxGeometry x="380" y="270" width="34.5" height="40" as="geometry" />
        </mxCell>
        <mxCell id="3Grn0vyBmcCtf6ID52XQ-3" value="" style="shape=image;verticalLabelPosition=bottom;labelBackgroundColor=default;verticalAlign=top;aspect=fixed;imageAspect=0;image=https://upload.wikimedia.org/wikipedia/commons/thumb/3/38/Jupyter_logo.svg/1200px-Jupyter_logo.svg.png;" vertex="1" parent="1">
          <mxGeometry x="380" y="310" width="34.5" height="40" as="geometry" />
        </mxCell>
        <mxCell id="3Grn0vyBmcCtf6ID52XQ-4" value="" style="shape=image;verticalLabelPosition=bottom;labelBackgroundColor=default;verticalAlign=top;aspect=fixed;imageAspect=0;image=https://upload.wikimedia.org/wikipedia/commons/thumb/3/38/Jupyter_logo.svg/1200px-Jupyter_logo.svg.png;" vertex="1" parent="1">
          <mxGeometry x="380" y="440" width="34.5" height="40" as="geometry" />
        </mxCell>
        <mxCell id="3Grn0vyBmcCtf6ID52XQ-5" value="" style="shape=image;verticalLabelPosition=bottom;labelBackgroundColor=default;verticalAlign=top;aspect=fixed;imageAspect=0;image=https://upload.wikimedia.org/wikipedia/commons/thumb/3/38/Jupyter_logo.svg/1200px-Jupyter_logo.svg.png;" vertex="1" parent="1">
          <mxGeometry x="380" y="400" width="34.5" height="40" as="geometry" />
        </mxCell>
        <mxCell id="3Grn0vyBmcCtf6ID52XQ-6" value="" style="shape=image;verticalLabelPosition=bottom;labelBackgroundColor=default;verticalAlign=top;aspect=fixed;imageAspect=0;image=https://upload.wikimedia.org/wikipedia/commons/thumb/3/38/Jupyter_logo.svg/1200px-Jupyter_logo.svg.png;" vertex="1" parent="1">
          <mxGeometry x="380" y="350" width="34.5" height="40" as="geometry" />
        </mxCell>
      </root>
    </mxGraphModel>
  </diagram>
</mxfile>
